HIERARCHY
ROOT Hips
{
  OFFSET 263.056 91.6644 -274.608
  CHANNELS 6 Xposition Yposition Zposition Zrotation Xrotation Yrotation
  JOINT LeftUpLeg
  {
    OFFSET 8.64259 1.95398 -2.38835
    CHANNELS 3 Zrotation Xrotation Yrotation
    JOINT LeftLeg
    {
      OFFSET 43.7702 0 0
      CHANNELS 3 Zrotation Xrotation Yrotation
      JOINT LeftFoot
      {
        OFFSET 40.6238 0 0
        CHANNELS 3 Zrotation Xrotation Yrotation
        JOINT LeftToeBase
        {
          OFFSET 12.7242 0 0
          CHANNELS 3 Zrotation Xrotation Yrotation
          End Site
          {
            OFFSET 0 0 0
          }
        }
      }
    }
  }
  JOINT RightUpLeg
  {
    OFFSET -8.2249 1.95398 -2.59336
    CHANNELS 3 Zrotation Xrotation Yrotation
    JOINT RightLeg
    {
      OFFSET 43.5653 0 0
      CHANNELS 3 Zrotation Xrotation Yrotation
      JOINT RightFoot
      {
        OFFSET 40.6238 0 0
        CHANNELS 3 Zrotation Xrotation Yrotation
        JOINT RightToeBase
        {
          OFFSET 12.7242 0 0
          CHANNELS 3 Zrotation Xrotation Yrotation
          End Site
          {
            OFFSET 0 0 0
          }
        }
      }
    }
  }
  JOINT Spine
  {
    OFFSET 0.165834 0.87714 6.61349
    CHANNELS 3 Zrotation Xrotation Yrotation
    JOINT Spine1
    {
      OFFSET 7.38963 1.71661e-005 0
      CHANNELS 3 Zrotation Xrotation Yrotation
      JOINT Spine2
      {
        OFFSET 11.9445 1.14441e-005 0
        CHANNELS 3 Zrotation Xrotation Yrotation
        JOINT Spine3
        {
          OFFSET 14.7254 4.19617e-005 0
          CHANNELS 3 Zrotation Xrotation Yrotation
          JOINT Spine4
          {
            OFFSET 10.9679 0 0
            CHANNELS 3 Zrotation Xrotation Yrotation
            JOINT RightShoulder
            {
              OFFSET 2.46616 -1.6653 3.69651
              CHANNELS 3 Zrotation Xrotation Yrotation
              JOINT RightArm
              {
                OFFSET 13.0012 0 0
                CHANNELS 3 Zrotation Xrotation Yrotation
                JOINT RightForeArm
                {
                  OFFSET 28.7848 1.52588e-005 0
                  CHANNELS 3 Zrotation Xrotation Yrotation
                  JOINT RightHand
                  {
                    OFFSET 26.5688 1.52588e-005 0
                    CHANNELS 3 Zrotation Xrotation Yrotation
                    End Site
                    {
                      OFFSET 0 0 0
                    }
                  }
                }
              }
            }
            JOINT LeftShoulder
            {
              OFFSET 2.38034 -1.29275 -3.7523
              CHANNELS 3 Zrotation Xrotation Yrotation
              JOINT LeftArm
              {
                OFFSET 16.3182 6.10352e-005 0
                CHANNELS 3 Zrotation Xrotation Yrotation
                JOINT LeftForeArm
                {
                  OFFSET 27.0901 0 0
                  CHANNELS 3 Zrotation Xrotation Yrotation
                  JOINT LeftHand
                  {
                    OFFSET 24.5451 1.52588e-005 0
                    CHANNELS 3 Zrotation Xrotation Yrotation
                    End Site
                    {
                      OFFSET 0 0 0
                    }
                  }
                }
              }
            }
            JOINT Neck
            {
              OFFSET 5.0226 -0.0266342 0
              CHANNELS 3 Zrotation Xrotation Yrotation
              JOINT Head
              {
                OFFSET 6.69364 2.86102e-005 0
                CHANNELS 3 Zrotation Xrotation Yrotation
                End Site
                {
                  OFFSET 0 0 0
                }
              }
            }
          }
        }
      }
    }
  }
}
MOTION
Frames:	17
Frame Time:	0.0416667
-54.7146 97.3026 50.3615 -150.219 -86.3326 -151.069 -172.692 1.97632 91.1681 -15.1272 13.6318 0.277358 57.6164 1.30586 7.34399 42.1233 13.3098 -11.3058 177.243 3.85498 88.1797 -21.0146 2.47928 -2.47183 63.6718 -1.4975 -0.809668 38.3632 0.794743 9.58638 0.111204 7.14836 -89.9512 12.5771 0.244188 0.0690069 0.90619 0.246996 0.0581918 -21.6291 0.212163 0.139217 -1.61646 0.212163 0.13921 71.509 -52.9254 -126.713 4.44175 -17.3459 -21.0773 7.58399 -7.19821 -39.7869 -9.34089 -0.551229 1.58823 -111.178 -41.8601 43.8428 -8.0165 14.4406 -18.9403 -4.30941 -0.585012 -32.5246 9.86872 0.202514 -1.63766 8.3895 2.28775 6.349 13.2997 1.06302 1.26314 
-54.8395 96.9031 48.9309 -126.557 -86.3024 -127.089 -172.535 2.96487 91.1371 -13.9455 12.5308 0.0743303 58.316 2.97203 10.094 42.9111 13.7043 -13.7335 177.975 5.14141 88.9865 -19.974 3.62568 -2.57358 65.4004 -2.03762 -1.10738 35.9343 0.439672 11.1725 0.162107 7.3477 -90.0047 12.1786 0.320046 -0.0448091 0.507635 0.317767 -0.0588573 -22.0278 0.318712 0.053452 -2.01517 0.318712 0.0534463 70.9387 -54.0634 -126.938 9.18078 -15.9066 -11.1327 6.72003 -12.4016 -30.3193 -9.99027 -0.831839 4.45994 -113.076 -42.3341 41.3839 -13.4514 15.8481 -11.6559 -3.62142 10.2209 -21.4082 11.8575 0.92106 3.64614 9.42529 2.20094 6.76464 14.9463 0.810983 1.06671 
-54.9384 96.7685 47.4795 -91.8153 -86.1171 -92.0465 -172.743 5.82708 91.0225 -14.0663 9.67819 0.225666 59.6962 3.55761 9.09764 39.9778 11.0758 -14.726 178.644 7.46756 89.522 -18.7038 3.52633 -2.55488 65.5908 -2.15839 -1.16786 34.4745 0.200384 11.9157 0.0998149 7.48449 -90.0122 11.9049 0.192751 -0.0454766 0.234007 0.190558 -0.0539236 -22.3013 0.197499 0.0145463 -2.28861 0.197505 0.0145554 72.2359 -54.4857 -124.967 14.3838 -14.157 0.739538 4.09894 -16.5398 -27.1386 -7.92278 -0.845907 7.00109 -111.264 -42.9822 44.3667 -22.0456 15.6898 -0.546857 -3.11233 13.158 -19.2144 12.4944 1.11516 4.76537 10.9961 2.68642 6.407 16.8065 1.32197 1.24904 
-55.0001 96.7863 45.8539 -67.9009 -85.2593 -67.9347 -172.887 7.84364 91.1125 -12.5719 9.51957 0.137912 61.197 4.20541 7.90348 34.3801 6.30443 -6.36632 179.242 9.72535 89.8774 -17.498 2.92025 -2.57093 65.346 -2.1557 -1.16881 38.333 0.840528 11.3558 0.00261446 7.65236 -89.9453 11.5692 0.0308489 0.106154 -0.101712 0.0355016 0.104681 -22.6368 -0.00248443 0.110513 -2.62419 -0.00246801 0.11052 73.2652 -54.6938 -123.462 18.0297 -15.2669 12.4835 3.21838 -16.861 -28.7683 -7.03773 -0.751841 6.73678 -108.349 -43.0112 48.6287 -28.9998 15.6221 11.3356 -1.64087 13.506 -22.6335 8.02886 0.697887 4.29429 11.9564 2.81622 5.14767 18.2489 1.76088 1.52741 
-55.0575 96.9419 44.4376 -47.9979 -84.0386 -47.8229 -172.992 10.1318 91.2192 -11.317 9.25438 0.0197276 61.8416 4.88086 8.22195 38.4242 10.3897 -4.85575 179.3 11.4101 90.0503 -15.2506 3.4615 -2.00809 66.9894 -2.716 -1.45952 47.1414 1.9752 8.53296 -0.0521162 7.75929 -89.909 11.3553 -0.0612322 0.187395 -0.315683 -0.0529195 0.189908 -22.8508 -0.114718 0.160332 -2.83812 -0.114725 0.160328 74.8827 -53.572 -121.731 22.7675 -16.4999 21.2389 2.9951 -18.1987 -29.169 -8.13899 -0.884825 7.26698 -106.014 -42.4553 51.808 -34.9877 15.2917 20.2574 -1.52382 11.2958 -25.666 9.75203 0.840721 4.38173 12.7593 2.84406 4.32783 18.3425 1.9763 1.62966 
-55.174 97.0723 43.2719 -37.7369 -81.9406 -37.1584 -172.891 12.4826 91.5004 -10.5423 8.57175 -0.171392 64.4369 7.68283 9.83235 47.088 19.6663 -2.28676 179.52 11.8093 90.4661 -11.0631 3.2667 -1.55795 70.5132 -4.18906 -2.18265 49.7027 1.72088 3.47284 0.0088242 7.80192 -89.88 11.2699 0.0734873 0.231619 -0.401097 0.083624 0.228159 -22.9361 0.000474855 0.242995 -2.92344 0.000487551 0.243002 74.9353 -52.9873 -121.917 26.2873 -16.3099 26.7659 3.53692 -18.4459 -28.3406 -7.25651 -0.799974 7.1886 -104.049 -41.9521 54.5329 -38.5438 15.3025 25.2073 -2.10457 9.88214 -26.8827 10.7397 0.79178 3.29676 14.4327 2.77067 2.78227 17.3389 2.32693 2.13509 
-55.1319 97.283 42.335 -32.9484 -80.7145 -31.9401 -172.755 13.662 91.6312 -9.9658 7.38903 -0.203694 68.5329 11.2516 9.28514 49.2236 23.6493 4.08385 179.297 11.5595 90.7438 -7.4214 5.31873 -0.770583 72.4708 -5.08096 -2.55464 54.9975 1.69427 0.563487 0.0149845 7.86118 -89.8605 11.1513 0.0946603 0.268323 -0.519654 0.106386 0.263899 -23.0546 0.00964127 0.284368 -3.04194 0.00964102 0.284367 75.4277 -52.5829 -121.404 28.6753 -15.2067 29.0875 2.81563 -18.6897 -27.979 -6.6721 -0.702608 6.26098 -103.273 -41.5375 55.5204 -40.753 14.9292 27.9641 -2.58477 8.83345 -27.2387 11.6969 0.746943 2.4082 15.4885 2.39065 2.08445 16.9442 2.02971 1.65067 
-55.1458 97.2618 41.6487 -28.9055 -79.7619 -27.8166 -173.049 14.8627 91.4264 -9.82813 7.39793 -0.0636431 70.8661 13.9007 9.45862 48.4235 24.1205 8.78859 179.477 12.1625 90.9083 -6.00365 4.90092 -0.646925 74.4267 -5.87191 -2.85877 55.2207 1.99708 2.15935 -0.00397372 7.89204 -89.8281 11.0896 0.0718958 0.335098 -0.581383 0.0865776 0.331597 -23.1162 -0.0321449 0.341203 -3.10354 -0.0321376 0.341209 75.7007 -52.4042 -121.098 29.6888 -14.6783 29.5418 3.3128 -17.6999 -27.88 -8.53491 -0.82977 5.786 -102.912 -41.3986 56.0128 -41.24 14.6596 28.497 -2.83629 8.48374 -26.7169 12.4364 0.74565 2.05755 16.9172 2.32797 1.5416 16.1971 2.15148 2.03469 
-55.0658 97.2473 41.287 -28.584 -79.7699 -27.526 -173.117 14.8494 91.3084 -9.44226 7.76214 -0.0621804 70.9973 15.0477 10.8451 48.9042 24.6418 8.5565 179.666 12.6553 90.9635 -6.61066 4.518 -0.859536 75.0344 -6.05201 -2.90939 56.1756 2.10778 2.30758 0.0253145 7.94809 -89.8213 10.9774 0.133178 0.342797 -0.69361 0.148138 0.336604 -23.2284 0.0239915 0.366981 -3.21577 0.0239967 0.366972 74.9496 -52.4805 -122.124 29.7272 -13.9368 29.7411 3.09902 -16.7597 -28.0173 -9.25104 -0.861542 5.44247 -103.018 -41.4675 55.8807 -40.6267 14.5263 27.8282 -2.68195 8.70606 -26.3961 12.3294 0.803203 2.54966 16.5115 2.36166 1.32276 16.678 2.37851 2.69628 
-54.9039 97.2529 41.3691 -24.2683 -80.3279 -23.349 -173.332 14.7143 91.0335 -9.41969 7.94504 0.0623074 70.8883 14.4239 9.67104 48.7896 24.6232 8.94275 179.601 12.8395 90.7353 -7.4644 4.70649 -0.988224 74.9154 -5.8733 -2.82768 56.5152 2.28631 3.1695 -0.0137969 7.92748 -89.8417 11.0188 0.0459572 0.310551 -0.652181 0.0595713 0.308214 -23.1871 -0.0495069 0.310007 -3.17441 -0.0495087 0.309993 75.1654 -52.8026 -121.676 29.2711 -13.7129 28.854 2.85103 -16.7626 -27.8029 -10.503 -0.960271 5.42336 -103.423 -41.4898 55.2669 -39.9093 14.0875 26.6445 -2.54332 8.16859 -26.1611 13.9086 0.941706 2.83774 16.002 2.47326 1.0151 16.4138 2.69296 3.38469 
-54.6953 97.2117 41.6671 -22.157 -80.7707 -21.096 -173.422 14.8412 91.0496 -10.2667 8.23824 0.131098 70.4096 13.7207 9.46279 50.1726 25.7118 7.09884 179.695 12.8163 90.7116 -8.01944 4.59208 -1.16327 74.2123 -5.64466 -2.75838 57.9032 2.1782 1.93072 0.00671634 7.90305 -89.8897 11.0676 0.0645876 0.213201 -0.603321 0.0739021 0.210144 -23.1383 -0.00248215 0.222748 -3.12569 -0.00247799 0.222748 75.1232 -52.7722 -121.749 29.0719 -13.0706 27.3677 2.74132 -15.7848 -28.2029 -11.7412 -1.09538 5.86675 -103.705 -41.6482 54.9096 -38.9137 14.1865 24.3042 -2.25472 7.97088 -26.528 14.4482 0.983941 2.88827 16.3718 2.4646 1.17212 15.816 2.67214 3.69742 
-54.4993 97.1393 42.4446 -20.69 -81.2783 -19.6314 -173.489 14.3892 91.0063 -10.7762 8.99053 0.174194 69.6715 12.9282 9.29642 52.0688 27.2488 5.07386 179.603 12.7276 90.5274 -9.32564 3.63991 -1.28868 73.098 -5.17335 -2.58256 57.4408 2.11996 1.8215 0.019713 7.82775 -89.9361 11.2184 0.0689965 0.120547 -0.452572 0.0742285 0.117382 -22.9877 0.029579 0.13571 -2.97504 0.0295716 0.135705 74.4905 -53.8869 -122.136 27.0315 -13.6216 24.3818 3.43381 -14.8267 -28.1497 -10.6909 -0.986313 5.61049 -104.421 -42.525 54.2471 -36.9529 14.7968 20.7412 -2.28739 7.94508 -26.271 13.7394 0.930305 2.83559 15.5996 2.6931 2.2533 16.1086 2.51856 3.1377 
-54.3742 96.9717 43.3601 -20.3121 -82.4753 -19.3827 -173.464 13.7771 91.0739 -12.0182 10.344 0.112335 67.3912 9.65989 7.80235 50.9018 26.5279 6.92788 179.724 11.7178 90.3415 -10.0263 2.30383 -1.81972 70.2333 -4.22354 -2.21513 53.2453 1.71555 1.34969 0.00400802 7.75523 -89.9815 11.3634 0.0166674 0.0352376 -0.307546 0.0182082 0.034476 -22.8427 0.00530412 0.0386242 -2.83005 0.00530064 0.0386113 73.8416 -55.0269 -122.523 23.5554 -14.9282 18.2645 3.61499 -15.8822 -27.5536 -8.23985 -0.780182 5.45034 -106.549 -43.8039 51.6992 -33.3037 15.1887 15.7915 -2.14921 8.6504 -25.2008 11.8488 0.77685 2.57491 12.9534 3.04419 4.39801 17.6872 2.1567 1.74065 
-54.2204 96.7799 44.5413 -22.2401 -84.2304 -21.5073 -173.406 11.8574 91.1496 -12.3806 11.6492 0.0899811 64.8087 7.59327 7.5486 48.5983 22.3059 1.86135 179.199 11.0937 89.8098 -12.7127 1.80946 -1.78947 66.2308 -2.45183 -1.3397 46.9223 1.35095 3.63642 -0.0130954 7.71676 -89.9669 11.4405 -0.0105451 0.0668072 -0.230459 -0.00759743 0.0671761 -22.7656 -0.0301374 0.0605422 -2.75296 -0.0301372 0.0605339 72.5779 -55.8577 -123.869 19.2491 -15.0813 9.53932 2.30066 -18.7063 -27.9163 -8.11907 -0.786052 5.53928 -108.462 -44.2875 49.1419 -27.7816 15.028 8.97151 -1.76813 9.91453 -23.6627 9.50087 0.637766 2.62625 11.9447 2.87329 4.72242 16.576 1.91721 1.60902 
-54.2537 96.6934 46.0542 -44.7972 -85.7038 -44.3153 -173.214 9.58834 91.0576 -13.5091 12.5481 0.00767456 61.4559 5.19566 9.22462 39.6438 11.1984 -9.59414 179.163 9.65079 89.8824 -15.3628 2.51048 -2.22937 65.0324 -1.93369 -1.0513 33.9705 0.197388 10.426 0.127285 7.64911 -89.9686 11.5757 0.267963 0.0351971 -0.0951864 0.269262 0.0233594 -22.6305 0.244998 0.114108 -2.61785 0.245004 0.114108 71.8542 -55.084 -125.205 14.9176 -14.4427 -0.137388 1.7188 -18.6453 -29.6575 -7.2891 -0.702159 5.16923 -110.478 -43.876 46.004 -21.6137 13.9682 2.20894 -0.359298 11.8476 -24.3784 9.41021 0.723158 3.48545 11.0843 2.92356 6.36911 15.2588 1.45667 0.752395 
-54.0911 96.659 47.5514 -75.1352 -86.8868 -74.4138 -173.128 7.48413 91.2099 -15.5163 12.8429 0.301009 60.065 4.90997 10.9808 40.1881 11.1629 -16.0492 179.05 7.86102 90.1125 -18.111 2.4769 -2.53076 65.6116 -2.04557 -1.10714 33.3378 0.0686202 9.25702 0.217596 7.56165 -90.0286 11.7508 0.419393 -0.101225 0.0798932 0.414537 -0.119592 -22.4558 0.430425 0.0294993 -2.44316 0.430422 0.0294988 71.0055 -54.4228 -126.673 9.08672 -13.9059 -10.0167 0.830999 -18.0824 -32.4832 -9.45493 -0.820577 4.59854 -111.484 -43.284 44.2207 -13.7838 12.9109 -5.3262 0.54818 11.7276 -26.6692 9.08736 0.755725 4.04552 9.72567 2.95984 6.43957 14.0075 1.55196 0.782156 
-54.1496 96.6668 49.0195 -114.998 -87.8367 -114.623 -173.169 6.51387 91.2578 -18.2109 13.4114 0.393062 58.9253 3.85731 10.3331 44.5141 14.6276 -16.8504 178.655 6.71808 89.8545 -21.0329 3.31785 -2.64279 65.5908 -1.96315 -1.06516 36.1894 0.472577 7.51646 0.181061 7.36638 -90.0074 12.1412 0.356474 -0.0541234 0.470352 0.353757 -0.0697636 -22.0652 0.356263 0.0555152 -2.05255 0.356264 0.0555171 71.0814 -53.3406 -127.097 4.94451 -12.0555 -18.4185 0.218641 -15.3542 -37.2191 -10.2638 -0.846003 4.24865 -111.141 -42.8279 44.4543 -7.32591 9.35881 -11.0334 4.03727 10.7556 -33.9952 9.31799 0.69237 3.2664 6.30819 3.52982 6.25699 13.3338 2.28552 0.41607 
